<svg width="28" height="27" viewBox="0 0 28 27" fill="none" xmlns="http://www.w3.org/2000/svg">
<rect x="0.764648" width="26.4706" height="26.4706" rx="13.2353" fill="#2C73FD" fill-opacity="0.1"/>
<g clip-path="url(#clip0_1_119)">
<path d="M14 6.61768C12.2041 6.61768 11.9783 6.62595 11.2727 6.65738C10.5671 6.69047 10.0865 6.80132 9.66541 6.9651C9.22376 7.13122 8.82372 7.3918 8.49326 7.72861C8.15665 8.05924 7.89611 8.45923 7.72975 8.90076C7.56596 9.32098 7.45429 9.80242 7.42203 10.5055C7.3906 11.2128 7.38232 11.4378 7.38232 13.2361C7.38232 15.0328 7.3906 15.2578 7.42203 15.9634C7.45512 16.6682 7.56596 17.1488 7.72975 17.5699C7.89933 18.005 8.12516 18.3739 8.49326 18.742C8.86054 19.1101 9.22947 19.3368 9.66459 19.5055C10.0865 19.6693 10.5662 19.781 11.271 19.8133C11.9775 19.8447 12.2025 19.853 14 19.853C15.7975 19.853 16.0217 19.8447 16.7281 19.8133C17.432 19.7802 17.9143 19.6693 18.3354 19.5055C18.7767 19.3393 19.1765 19.0788 19.5067 18.742C19.8748 18.3739 20.1006 18.005 20.2702 17.5699C20.4332 17.1488 20.5448 16.6682 20.5779 15.9634C20.6093 15.2578 20.6176 15.0328 20.6176 13.2353C20.6176 11.4378 20.6093 11.2128 20.5779 10.5064C20.5448 9.80242 20.4332 9.32098 20.2702 8.90076C20.1039 8.45922 19.8433 8.05923 19.5067 7.72861C19.1763 7.39167 18.7763 7.13108 18.3345 6.9651C17.9127 6.80132 17.4312 6.68964 16.7273 6.65738C16.0208 6.62595 15.7967 6.61768 13.9983 6.61768H14.0008H14ZM13.4069 7.81051H14.0008C15.7677 7.81051 15.977 7.8163 16.6743 7.84856C17.3195 7.87751 17.6703 7.98587 17.9036 8.07604C18.2121 8.19598 18.433 8.33992 18.6646 8.57154C18.8962 8.80315 19.0393 9.02319 19.1593 9.33257C19.2502 9.56501 19.3578 9.91575 19.3867 10.561C19.419 11.2583 19.4256 11.4676 19.4256 13.2337C19.4256 14.9998 19.419 15.2099 19.3867 15.9072C19.3578 16.5524 19.2494 16.9023 19.1593 17.1356C19.0532 17.4229 18.8838 17.6827 18.6638 17.8958C18.4321 18.1274 18.2121 18.2705 17.9027 18.3905C17.6711 18.4815 17.3204 18.589 16.6743 18.6188C15.977 18.6502 15.7677 18.6577 14.0008 18.6577C12.2339 18.6577 12.0238 18.6502 11.3264 18.6188C10.6812 18.589 10.3313 18.4815 10.098 18.3905C9.81059 18.2845 9.55053 18.1155 9.33701 17.8958C9.11677 17.6824 8.94717 17.4224 8.84069 17.1348C8.75052 16.9023 8.64216 16.5516 8.61321 15.9064C8.58177 15.209 8.57516 14.9998 8.57516 13.232C8.57516 11.4651 8.58177 11.2566 8.61321 10.5593C8.64299 9.91409 8.75052 9.56336 8.84152 9.33008C8.96146 9.02154 9.10539 8.80067 9.33701 8.56905C9.56863 8.33744 9.78867 8.19433 10.098 8.07439C10.3313 7.98339 10.6812 7.87586 11.3264 7.84608C11.9369 7.81795 12.1735 7.80968 13.4069 7.80885V7.81051ZM17.533 8.90904C17.4287 8.90904 17.3254 8.92958 17.2291 8.96948C17.1327 9.00939 17.0452 9.06789 16.9714 9.14163C16.8977 9.21537 16.8392 9.30291 16.7993 9.39926C16.7594 9.4956 16.7388 9.59887 16.7388 9.70315C16.7388 9.80744 16.7594 9.9107 16.7993 10.007C16.8392 10.1034 16.8977 10.1909 16.9714 10.2647C17.0452 10.3384 17.1327 10.3969 17.2291 10.4368C17.3254 10.4767 17.4287 10.4973 17.533 10.4973C17.7436 10.4973 17.9456 10.4136 18.0945 10.2647C18.2434 10.1158 18.3271 9.91377 18.3271 9.70315C18.3271 9.49254 18.2434 9.29055 18.0945 9.14163C17.9456 8.9927 17.7436 8.90904 17.533 8.90904ZM14.0008 9.83716C13.55 9.83013 13.1024 9.91284 12.6839 10.0805C12.2654 10.2481 11.8844 10.4973 11.5631 10.8136C11.2419 11.1299 10.9868 11.5069 10.8126 11.9228C10.6385 12.3386 10.5488 12.7849 10.5488 13.2357C10.5488 13.6866 10.6385 14.1329 10.8126 14.5487C10.9868 14.9645 11.2419 15.3416 11.5631 15.6579C11.8844 15.9741 12.2654 16.2234 12.6839 16.391C13.1024 16.5586 13.55 16.6413 14.0008 16.6343C14.893 16.6204 15.7439 16.2562 16.3699 15.6204C16.9959 14.9845 17.3468 14.128 17.3468 13.2357C17.3468 12.3435 16.9959 11.487 16.3699 10.8511C15.7439 10.2153 14.893 9.85108 14.0008 9.83716ZM14.0008 11.0292C14.5859 11.0292 15.1471 11.2616 15.5608 11.6753C15.9745 12.0891 16.207 12.6502 16.207 13.2353C16.207 13.8204 15.9745 14.3816 15.5608 14.7953C15.1471 15.209 14.5859 15.4415 14.0008 15.4415C13.4157 15.4415 12.8545 15.209 12.4408 14.7953C12.0271 14.3816 11.7946 13.8204 11.7946 13.2353C11.7946 12.6502 12.0271 12.0891 12.4408 11.6753C12.8545 11.2616 13.4157 11.0292 14.0008 11.0292Z" fill="#FF9900"/>
</g>
<defs>
<clipPath id="clip0_1_119">
<rect width="13.2353" height="13.2353" fill="white" transform="translate(7.38232 6.61768)"/>
</clipPath>
</defs>
</svg>
