<svg width="22" height="22" viewBox="0 0 22 22" fill="none" xmlns="http://www.w3.org/2000/svg">
<g id="huge-icon/education/outline/book 01">
<path id="Vector" d="M8 5.66671C7.58579 5.66671 7.25 6.00249 7.25 6.41671C7.25 6.83092 7.58579 7.16671 8 7.16671V5.66671ZM16 7.16671C16.4142 7.16671 16.75 6.83092 16.75 6.41671C16.75 6.00249 16.4142 5.66671 16 5.66671V7.16671ZM8 9.33337C7.58579 9.33337 7.25 9.66916 7.25 10.0834C7.25 10.4976 7.58579 10.8334 8 10.8334V9.33337ZM12 10.8334C12.4142 10.8334 12.75 10.4976 12.75 10.0834C12.75 9.66916 12.4142 9.33337 12 9.33337V10.8334ZM7 15.4167H20V13.9167H7V15.4167ZM17 19.4167H7V20.9167H17V19.4167ZM7 19.4167C5.6946 19.4167 4.75 18.4612 4.75 17.4167H3.25C3.25 19.4098 4.9917 20.9167 7 20.9167V19.4167ZM17 20.9167C19.0083 20.9167 20.75 19.4098 20.75 17.4167H19.25C19.25 18.4612 18.3054 19.4167 17 19.4167V20.9167ZM7 13.9167C4.9917 13.9167 3.25 15.4236 3.25 17.4167H4.75C4.75 16.3722 5.6946 15.4167 7 15.4167V13.9167ZM7 2.58337H17V1.08337H7V2.58337ZM19.25 4.58337V17.4167H20.75V4.58337H19.25ZM4.75 17.4167V4.58337H3.25V17.4167H4.75ZM17 2.58337C18.3054 2.58337 19.25 3.5389 19.25 4.58337H20.75C20.75 2.59028 19.0083 1.08337 17 1.08337V2.58337ZM7 1.08337C4.9917 1.08337 3.25 2.59028 3.25 4.58337H4.75C4.75 3.5389 5.69459 2.58337 7 2.58337V1.08337ZM8 7.16671H16V5.66671H8V7.16671ZM8 10.8334H12V9.33337H8V10.8334Z" fill="#FF9900"/>
</g>
</svg>
