<svg width="27" height="27" viewBox="0 0 27 27" fill="none" xmlns="http://www.w3.org/2000/svg">
<rect width="26.4706" height="26.4706" rx="13.2353" fill="#2C73FD" fill-opacity="0.1"/>
<g clip-path="url(#clip0_1_117)">
<path d="M10.7752 19.0257C15.7699 19.0257 18.5021 14.8872 18.5021 11.3046C18.5021 11.1888 18.5021 11.0713 18.4972 10.9555C19.0291 10.5704 19.4882 10.0937 19.853 9.54761C19.3561 9.7667 18.8295 9.91109 18.2904 9.9761C18.8583 9.63665 19.2836 9.10255 19.4873 8.47307C18.9538 8.78916 18.3698 9.01106 17.761 9.12904C17.3516 8.69313 16.81 8.40434 16.22 8.30743C15.6299 8.21051 15.0243 8.31087 14.4971 8.59296C13.9698 8.87505 13.5503 9.32313 13.3035 9.86779C13.0567 10.4124 12.9964 11.0233 13.1319 11.6057C12.0522 11.5516 10.9959 11.2711 10.0316 10.7824C9.06726 10.2938 8.2164 9.60787 7.53422 8.76921C7.1879 9.36735 7.08221 10.0749 7.23861 10.7481C7.39502 11.4213 7.80178 12.0098 8.37632 12.394C7.94579 12.3794 7.52472 12.2638 7.14709 12.0565V12.0937C7.14783 12.7203 7.3649 13.3275 7.7616 13.8125C8.1583 14.2975 8.7103 14.6307 9.32429 14.7557C9.09124 14.8199 8.85049 14.8519 8.60876 14.8508C8.43834 14.8513 8.26827 14.8356 8.10086 14.8037C8.27439 15.3431 8.6123 15.8147 9.06724 16.1524C9.52218 16.4902 10.0714 16.6772 10.6379 16.6872C9.67549 17.4431 8.48667 17.8531 7.2629 17.8511C7.04726 17.852 6.83178 17.8396 6.61768 17.8139C7.85974 18.6057 9.3022 19.0262 10.7752 19.0257Z" fill="#FF9900"/>
</g>
<defs>
<clipPath id="clip0_1_117">
<rect width="13.2353" height="13.2353" fill="white" transform="translate(6.61768 6.61768)"/>
</clipPath>
</defs>
</svg>
