<svg width="27" height="27" viewBox="0 0 27 27" fill="none" xmlns="http://www.w3.org/2000/svg">
<rect x="0.529297" width="26.4706" height="26.4706" rx="13.2353" fill="#2C73FD" fill-opacity="0.1"/>
<g clip-path="url(#clip0_1_121)">
<path d="M13.8068 8.27124H13.8804C14.5604 8.27372 18.0057 8.29854 18.9347 8.54835C19.2155 8.6246 19.4714 8.77321 19.6768 8.97934C19.8822 9.18546 20.0299 9.44189 20.1052 9.72299C20.1887 10.0373 20.2474 10.4534 20.2871 10.8827L20.2954 10.9688L20.3136 11.1838L20.3202 11.2699C20.374 12.0259 20.3806 12.734 20.3814 12.8887V12.9507C20.3806 13.1112 20.3732 13.8673 20.3136 14.6548L20.307 14.7416L20.2995 14.8277C20.2582 15.3008 20.197 15.7707 20.1052 16.1165C20.0301 16.3977 19.8825 16.6542 19.6771 16.8604C19.4716 17.0665 19.2156 17.2151 18.9347 17.2911C17.9751 17.5492 14.3279 17.5674 13.8225 17.5682H13.7051C13.4495 17.5682 12.3923 17.5632 11.2838 17.5252L11.1432 17.5202L11.0712 17.5169L10.9298 17.5111L10.7883 17.5053C9.87013 17.4648 8.99578 17.3995 8.59293 17.2903C8.31208 17.2143 8.05613 17.0659 7.8507 16.8599C7.64527 16.6539 7.49758 16.3975 7.42243 16.1165C7.33061 15.7715 7.2694 15.3008 7.22804 14.8277L7.22142 14.7408L7.2148 14.6548C7.17398 14.0943 7.15136 13.5326 7.14697 12.9706L7.14697 12.8689C7.14863 12.691 7.15524 12.0764 7.19991 11.3981L7.2057 11.3129L7.20819 11.2699L7.2148 11.1838L7.233 10.9688L7.24127 10.8827C7.28098 10.4534 7.33971 10.0365 7.42326 9.72299C7.49828 9.44178 7.64591 9.18523 7.85135 8.97907C8.05679 8.7729 8.31281 8.62437 8.59376 8.54835C8.9966 8.44082 9.87096 8.37464 10.7892 8.33328L10.9298 8.32749L11.0721 8.32253L11.1432 8.32005L11.2847 8.31426C12.0719 8.28892 12.8595 8.27486 13.6472 8.27207H13.8068V8.27124ZM12.4411 10.9266V14.912L15.8798 12.9201L12.4411 10.9266Z" fill="#FF9900"/>
</g>
<defs>
<clipPath id="clip0_1_121">
<rect width="13.2353" height="13.2353" fill="white" transform="translate(7.14697 6.61768)"/>
</clipPath>
</defs>
</svg>
